<svg width="75" height="75" viewBox="0 0 75 75" fill="none" xmlns="http://www.w3.org/2000/svg">
<rect width="75" height="75" rx="7" fill="#1E1E1E"/>
<path fill-rule="evenodd" clip-rule="evenodd" d="M27.3939 22.0027C28.6909 21.9791 29.986 22.1093 31.251 22.3904C32.3161 22.618 33.3273 23.0416 34.2309 23.6386C35.0655 24.2322 35.7258 25.0303 36.1456 25.9528C36.6281 27.0871 36.8609 28.3083 36.8287 29.5366C36.8835 30.8853 36.5317 32.2199 35.8169 33.3742C35.0651 34.4644 34.0258 35.3351 32.8093 35.8939C34.4601 36.3296 35.898 37.3275 36.8644 38.7082C37.7921 40.1712 38.2584 41.8695 38.2049 43.5906C38.2355 44.9628 37.9456 46.3238 37.3574 47.5697C36.8137 48.6566 36.0176 49.6038 35.0329 50.3356C34.019 51.0592 32.8781 51.5946 31.6668 51.9152C30.4107 52.2554 29.113 52.4262 27.8097 52.423H13.5V22.0027H27.3939ZM26.5682 34.3065C27.5873 34.3476 28.5904 34.049 29.4135 33.4595C29.8077 33.116 30.1144 32.6869 30.309 32.2067C30.5036 31.7265 30.5807 31.2083 30.5342 30.6937C30.5606 30.0926 30.4383 29.4942 30.1778 28.9493C29.9568 28.5154 29.6132 28.1528 29.1878 27.9046C28.7569 27.6313 28.2728 27.4485 27.7661 27.3677C27.2163 27.2634 26.6569 27.216 26.097 27.2262H19.9826V34.3336H26.5682V34.3065ZM26.9246 47.2577C27.5409 47.2658 28.1559 47.2008 28.7562 47.0638C29.3047 46.9453 29.8249 46.7248 30.2887 46.4145C30.743 46.1044 31.1101 45.6871 31.3559 45.2012C31.641 44.5817 31.7719 43.9048 31.7381 43.2262C31.7999 42.6077 31.7162 41.9836 31.4935 41.4017C31.2707 40.8198 30.9148 40.2956 30.453 39.8692C29.4743 39.1635 28.2749 38.814 27.0612 38.8807H19.9826V47.2577H26.9246Z" fill="#FAFAFA"/>
<path fill-rule="evenodd" clip-rule="evenodd" d="M47.4378 47.1452C47.9466 47.6069 48.546 47.9625 49.1995 48.1904C49.853 48.4183 50.5471 48.5137 51.2394 48.471C52.3371 48.4981 53.4134 48.1712 54.3026 47.5406C55.0259 47.0802 55.5737 46.3989 55.8608 45.6024H61.0307C60.4799 47.8698 59.1347 49.8765 57.229 51.2736C55.4009 52.4614 53.2405 53.063 51.0474 52.9948C49.4821 53.0149 47.9287 52.7268 46.4794 52.1478C45.1684 51.6126 43.9926 50.8036 43.0342 49.7773C42.0794 48.702 41.3458 47.4561 40.874 46.1083C40.3443 44.6017 40.085 43.0168 40.1077 41.4236C40.098 39.8572 40.366 38.301 40.8997 36.8242C41.6167 34.7467 42.9876 32.9449 44.8157 31.6774C46.6438 30.4099 48.8351 29.7418 51.0751 29.7691C52.7289 29.7353 54.3643 30.1142 55.8272 30.87C57.1495 31.5798 58.2902 32.5739 59.1635 33.7774C60.0569 35.0402 60.6972 36.4576 61.0505 37.9542C61.438 39.5613 61.5761 41.2164 61.4604 42.8637H46.0616C45.9369 44.4115 46.4302 45.9463 47.4378 47.1452ZM54.1936 35.576C53.7627 35.1541 53.2444 34.8275 52.6737 34.6182C52.103 34.4089 51.493 34.3218 50.885 34.3627C50.0784 34.3326 49.2775 34.5076 48.5605 34.8705C47.992 35.1769 47.4902 35.589 47.0833 36.0838C46.7228 36.5478 46.4541 37.0737 46.2913 37.6344C46.1446 38.1021 46.053 38.5846 46.0181 39.0726H55.5559C55.4728 37.8004 54.9994 36.5825 54.1976 35.578L54.1936 35.576Z" fill="#FAFAFA"/>
<path d="M44.7885 24.0339H56.74V27.0246H44.7885V24.0339Z" fill="#FAFAFA"/>
</svg>
