<svg width="75" height="75" viewBox="0 0 75 75" fill="none" xmlns="http://www.w3.org/2000/svg">
<rect width="75" height="75" rx="7" fill="#1E1E1E"/>
<path fill-rule="evenodd" clip-rule="evenodd" d="M37.5 13.5C24.242 13.5 13.5 24.2498 13.5 37.4956C13.5 50.0868 23.2139 60.4217 35.5532 61.4134V61.5H37.5C50.758 61.5 61.5 50.7502 61.5 37.5043C61.5 24.2595 50.7589 13.5 37.5 13.5ZM42.8032 56.9004C41.2975 57.3111 39.7214 57.5511 38.0969 57.5985H37.5C34.7911 57.5985 32.2068 57.0619 29.8475 56.0894C32.1318 47.8589 38.3241 41.9635 45.4119 39.3292C46.635 45.2571 45.7471 51.6095 42.8032 56.9004ZM44.3327 35.5801C36.2432 38.4937 29.1783 45.0568 26.3395 54.2165C20.9468 50.6096 17.3935 44.4649 17.3935 37.4956C17.3935 35.0243 17.8399 32.6566 18.6565 30.469C21.0906 31.6819 23.6934 32.5398 26.3701 33.0169C29.7797 33.642 33.2731 33.6212 36.6729 33.0082C38.608 32.6589 40.4973 32.1024 42.3087 31.3609C43.115 32.7013 43.7932 34.1137 44.3327 35.5801ZM49.1646 38.2577C50.3336 43.6535 49.9791 49.3715 48.1135 54.5808C53.6485 51.1339 57.3853 45.0722 57.597 38.1278C54.8455 37.629 51.9775 37.6899 49.1646 38.2577ZM57.3265 34.1423C54.2794 33.7144 51.1459 33.8535 48.085 34.5073C47.4821 32.8161 46.7212 31.1868 45.8146 29.6398C48.3294 28.1874 50.626 26.3594 52.6002 24.2278C55.0146 26.9731 56.6929 30.3813 57.3265 34.1423ZM27.058 29.1853C24.7327 28.7713 22.4742 28.025 20.3665 26.9717C22.1792 24.0282 24.7295 21.5868 27.7599 19.9054L27.7833 19.9128L27.7842 19.913L27.7843 19.9131L27.7843 19.9131C28.1145 20.017 28.4297 20.1162 28.7332 20.2251C28.8451 20.2679 28.9548 20.3095 29.062 20.3501L29.0636 20.3507L29.0637 20.3508L29.0638 20.3508C29.5559 20.5374 29.9954 20.704 30.3625 20.8742L30.4673 20.9266L30.4923 20.9382C30.7241 21.046 31.0582 21.2052 31.3592 21.3488C31.5192 21.4251 31.6699 21.497 31.7911 21.5543L31.7956 21.5568C31.8968 21.6111 31.9819 21.6568 32.0611 21.7041C32.1256 21.7459 32.1832 21.7798 32.2141 21.7979C32.2706 21.831 32.3287 21.8637 32.3765 21.8903C32.4174 21.913 32.4575 21.9351 32.4876 21.9516L32.5027 21.96L32.5348 21.9777L32.5388 21.98C32.5834 22.0057 32.6376 22.0366 32.6993 22.0719C32.8317 22.1474 32.999 22.2429 33.1828 22.3504C33.3123 22.4263 33.4335 22.4987 33.5323 22.56C33.6058 22.6056 33.6458 22.6321 33.661 22.6422L33.6619 22.6428C33.6681 22.6469 33.6695 22.6479 33.667 22.646L33.7524 22.7106L33.8472 22.767C33.9918 22.8528 34.1343 22.9514 34.3121 23.0744L34.3121 23.0744L34.3122 23.0745L34.3129 23.075C34.3941 23.1312 34.4827 23.1924 34.5821 23.2599L34.6497 23.3058L34.7071 23.3382C34.7071 23.3383 34.7098 23.3401 34.7155 23.3439C34.7309 23.3543 34.7684 23.3796 34.8338 23.4264C34.9344 23.4984 35.0558 23.5888 35.1895 23.6893L35.3477 23.8086C35.4291 23.87 35.5116 23.9322 35.5818 23.9847C35.6745 24.0541 35.7879 24.1383 35.8903 24.2093C37.3842 25.3519 38.7498 26.6565 39.9656 28.0946C38.6721 28.5679 37.3389 28.9322 35.9815 29.1773C33.0224 29.7108 30 29.7252 27.0682 29.1872L27.0631 29.1862L27.058 29.1853ZM37.5 17.3928C42.115 17.3928 46.3666 18.9493 49.7598 21.5651C47.9807 23.4899 45.8974 25.1291 43.6163 26.4119C42.048 24.4185 40.2335 22.6238 38.2106 21.0828L38.1617 21.0456L38.111 21.0118L38.0972 21.0022C38.0864 20.9946 38.072 20.9843 38.0536 20.9709C38.0162 20.9438 37.9699 20.9095 37.9144 20.8679C37.8515 20.8208 37.7883 20.7732 37.7205 20.722L37.7204 20.7219L37.7065 20.7114C37.6515 20.6699 37.5933 20.6259 37.5295 20.5781C37.3917 20.4744 37.2405 20.3617 37.1016 20.2621C37.0045 20.1926 36.865 20.0942 36.7225 20.0074L36.6322 19.9449L36.6317 19.9445L36.6316 19.9445C36.4463 19.8162 36.1683 19.6236 35.9153 19.4683C35.679 19.3026 35.3596 19.1139 35.1504 18.9913C34.9478 18.8727 34.7296 18.7482 34.5942 18.6709L34.5931 18.6703L34.4905 18.6116C34.4651 18.5968 34.4431 18.5845 34.4344 18.5797L34.4332 18.579L34.3807 18.55L34.3629 18.5402C34.3327 18.5235 34.3024 18.5069 34.271 18.4894C34.235 18.4694 34.2059 18.4528 34.1847 18.4405L34.1701 18.4302L34.1184 18.3987C33.9314 18.2844 33.7366 18.1801 33.6308 18.1234L33.6286 18.1222L33.5917 18.1025L33.5465 18.0782L33.5001 18.0562C33.4072 18.0124 33.2698 17.947 33.1139 17.8726C34.5257 17.5585 35.9935 17.3928 37.5 17.3928Z" fill="#FAFAFA"/>
</svg>
