<svg width="75" height="75" viewBox="0 0 75 75" fill="none" xmlns="http://www.w3.org/2000/svg">
<rect width="75" height="75" rx="7" fill="#1E1E1E"/>
<path fill-rule="evenodd" clip-rule="evenodd" d="M29.8201 13.5H45.1799C49.9495 13.5 53.82 17.3705 53.82 22.1401C53.82 25.4825 51.9192 28.3832 49.1403 29.8199C51.9192 31.2567 53.82 34.1576 53.82 37.4999C53.82 42.2695 49.9495 46.14 45.1799 46.14C42.4668 46.14 40.0446 44.8876 38.4602 42.9298V52.8599C38.4602 57.6295 34.5897 61.5 29.8201 61.5C25.0505 61.5 21.18 57.6295 21.18 52.8599C21.18 49.5175 23.0808 46.6167 25.8597 45.1799C23.0808 43.7432 21.18 40.8423 21.18 37.4999C21.18 34.1576 23.0807 31.2567 25.8597 29.8199C23.0808 28.3832 21.18 25.4825 21.18 22.1401C21.18 17.3705 25.0505 13.5 29.8201 13.5ZM23.1 22.1401C23.1 18.4309 26.1109 15.42 29.8201 15.42H36.5398V28.8599H29.8201L29.7993 28.8599C26.0996 28.8487 23.1 25.8422 23.1 22.1401ZM36.5402 37.4086C36.5399 37.439 36.5398 37.4694 36.5398 37.4999C36.5398 37.5304 36.5399 37.5609 36.5402 37.5913V44.2198H29.8201C26.1109 44.22 23.1 41.2091 23.1 37.4999C23.1 33.7977 26.0997 30.7911 29.7995 30.7799L29.8201 30.7799H36.5398L36.5402 37.4086ZM38.4602 37.5804V37.4195C38.5033 33.7565 41.4826 30.7947 45.1523 30.7799H45.1799C45.1868 30.7799 45.1936 30.7799 45.2005 30.7799C48.9003 30.7911 51.9 33.7977 51.9 37.4999C51.9 41.2091 48.8891 44.22 45.1799 44.22C41.4975 44.22 38.5034 41.2526 38.4602 37.5804ZM39.7505 30.7799C39.2765 31.1635 38.8438 31.5961 38.4602 32.0701V30.7799H39.7505ZM45.2007 28.8599C45.1938 28.8599 45.1868 28.8599 45.1799 28.8599C45.1694 28.8599 45.1589 28.8599 45.1484 28.8599H38.4602V15.42H45.1799C48.8891 15.42 51.9 18.4309 51.9 22.1401C51.9 25.8422 48.9004 28.8487 45.2007 28.8599ZM29.8201 46.1399C26.1109 46.1399 23.1 49.1508 23.1 52.8599C23.1 56.5691 26.1109 59.58 29.8201 59.58C33.5293 59.58 36.5402 56.5691 36.5402 52.8599V46.1399H29.8201Z" fill="#FAFAFA"/>
</svg>
