<svg width="75" height="75" viewBox="0 0 75 75" fill="none" xmlns="http://www.w3.org/2000/svg">
<rect width="75" height="75" rx="7" fill="#1E1E1E"/>
<path fill-rule="evenodd" clip-rule="evenodd" d="M37.5199 13.8999C24.2375 13.8999 13.5 24.7166 13.5 38.0982C13.5 48.7949 20.3799 57.8494 29.9241 61.0541C31.1174 61.295 31.5545 60.5335 31.5545 59.8928C31.5545 59.3318 31.5151 57.4089 31.5151 55.4054C24.8334 56.8479 23.442 52.5208 23.442 52.5208C22.3682 49.7163 20.7772 48.9955 20.7772 48.9955C18.5902 47.5131 20.9365 47.5131 20.9365 47.5131C23.3623 47.6734 24.6353 49.997 24.6353 49.997C26.7824 53.6826 30.2422 52.6412 31.6341 52.0001C31.8328 50.4376 32.4695 49.3559 33.1455 48.7551C27.8163 48.1941 22.2094 46.1109 22.2094 36.816C22.2094 34.1718 23.1632 32.0085 24.6746 30.326C24.4361 29.7252 23.6008 27.2408 24.9135 23.9156C24.9135 23.9156 26.9417 23.2745 31.5146 26.3995C33.4725 25.8698 35.4916 25.6004 37.5199 25.5981C39.548 25.5981 41.6154 25.8789 43.5246 26.3995C48.0981 23.2745 50.1262 23.9156 50.1262 23.9156C51.4389 27.2408 50.6031 29.7252 50.3646 30.326C51.9158 32.0085 52.8303 34.1718 52.8303 36.816C52.8303 46.1109 47.2234 48.1538 41.8544 48.7551C42.7296 49.5162 43.4848 50.9583 43.4848 53.242C43.4848 56.487 43.4454 59.0914 43.4454 59.8923C43.4454 60.5335 43.883 61.295 45.0758 61.0546C54.62 57.849 61.4999 48.7949 61.4999 38.0982C61.5392 24.7166 50.7624 13.8999 37.5199 13.8999Z" fill="#FAFAFA"/>
</svg>
