<svg width="75" height="75" viewBox="0 0 75 75" fill="none" xmlns="http://www.w3.org/2000/svg">
<rect width="75" height="75" rx="7" fill="#1E1E1E"/>
<path d="M37.5141 17.8265C43.9266 17.8265 44.6859 17.8546 47.2078 17.9671C49.5516 18.0703 50.8172 18.464 51.6609 18.7921C52.7766 19.2234 53.5828 19.7484 54.4172 20.5828C55.2609 21.4265 55.7766 22.2234 56.2078 23.339C56.5359 24.1828 56.9297 25.4578 57.0328 27.7921C57.1453 30.3234 57.1734 31.0828 57.1734 37.4859C57.1734 43.8984 57.1453 44.6578 57.0328 47.1796C56.9297 49.5234 56.5359 50.789 56.2078 51.6328C55.7766 52.7484 55.2516 53.5546 54.4172 54.389C53.5734 55.2328 52.7766 55.7484 51.6609 56.1796C50.8172 56.5078 49.5422 56.9015 47.2078 57.0046C44.6766 57.1171 43.9172 57.1453 37.5141 57.1453C31.1016 57.1453 30.3422 57.1171 27.8203 57.0046C25.4766 56.9015 24.2109 56.5078 23.3672 56.1796C22.2516 55.7484 21.4453 55.2234 20.6109 54.389C19.7672 53.5453 19.2516 52.7484 18.8203 51.6328C18.4922 50.789 18.0984 49.514 17.9953 47.1796C17.8828 44.6484 17.8547 43.889 17.8547 37.4859C17.8547 31.0734 17.8828 30.314 17.9953 27.7921C18.0984 25.4484 18.4922 24.1828 18.8203 23.339C19.2516 22.2234 19.7766 21.4171 20.6109 20.5828C21.4547 19.739 22.2516 19.2234 23.3672 18.7921C24.2109 18.464 25.4859 18.0703 27.8203 17.9671C30.3422 17.8546 31.1016 17.8265 37.5141 17.8265ZM37.5141 13.5046C30.9984 13.5046 30.1828 13.5328 27.6234 13.6453C25.0734 13.7578 23.3203 14.1703 21.8016 14.7609C20.2172 15.3796 18.8766 16.1953 17.5453 17.5359C16.2047 18.8671 15.3891 20.2078 14.7703 21.7828C14.1797 23.3109 13.7672 25.0546 13.6547 27.6046C13.5422 30.1734 13.5141 30.989 13.5141 37.5046C13.5141 44.0203 13.5422 44.8359 13.6547 47.3953C13.7672 49.9453 14.1797 51.6984 14.7703 53.2171C15.3891 54.8015 16.2047 56.1421 17.5453 57.4734C18.8766 58.8046 20.2172 59.6296 21.7922 60.239C23.3203 60.8296 25.0641 61.2421 27.6141 61.3546C30.1734 61.4671 30.9891 61.4953 37.5047 61.4953C44.0203 61.4953 44.8359 61.4671 47.3953 61.3546C49.9453 61.2421 51.6984 60.8296 53.2172 60.239C54.7922 59.6296 56.1328 58.8046 57.4641 57.4734C58.7953 56.1421 59.6203 54.8015 60.2297 53.2265C60.8203 51.6984 61.2328 49.9546 61.3453 47.4046C61.4578 44.8453 61.4859 44.0296 61.4859 37.514C61.4859 30.9984 61.4578 30.1828 61.3453 27.6234C61.2328 25.0734 60.8203 23.3203 60.2297 21.8015C59.6391 20.2078 58.8234 18.8671 57.4828 17.5359C56.1516 16.2046 54.8109 15.3796 53.2359 14.7703C51.7078 14.1796 49.9641 13.7671 47.4141 13.6546C44.8453 13.5328 44.0297 13.5046 37.5141 13.5046Z" fill="#FAFAFA"/>
<path d="M38 25.6719C31.1938 25.6719 25.6719 31.1938 25.6719 38C25.6719 44.8062 31.1938 50.3281 38 50.3281C44.8062 50.3281 50.3281 44.8062 50.3281 38C50.3281 31.1938 44.8062 25.6719 38 25.6719ZM38 45.9969C33.5844 45.9969 30.0031 42.4156 30.0031 38C30.0031 33.5844 33.5844 30.0031 38 30.0031C42.4156 30.0031 45.9969 33.5844 45.9969 38C45.9969 42.4156 42.4156 45.9969 38 45.9969Z" fill="#FAFAFA"/>
<path d="M53.6937 25.1843C53.6937 26.778 52.4 28.0624 50.8156 28.0624C49.2219 28.0624 47.9375 26.7687 47.9375 25.1843C47.9375 23.5905 49.2313 22.3062 50.8156 22.3062C52.4 22.3062 53.6937 23.5999 53.6937 25.1843Z" fill="#FAFAFA"/>
</svg>
