<svg width="75" height="75" viewBox="0 0 75 75" fill="none" xmlns="http://www.w3.org/2000/svg">
<rect width="75" height="75" rx="7" fill="#1E1E1E"/>
<path d="M37.624 53.9999H18.4864C18.1543 53.9999 18.0034 53.8177 18.0034 53.4535V22.4296C17.9967 22.3796 18 22.3288 18.0131 22.2802C18.0263 22.2316 18.049 22.1861 18.08 22.1464C18.1109 22.1068 18.1495 22.0738 18.1934 22.0495C18.2373 22.0251 18.2856 22.0098 18.3354 22.0046H24.3725C24.4103 21.9977 24.4491 21.9986 24.4865 22.0072C24.5239 22.0157 24.5592 22.0319 24.5902 22.0546C24.6213 22.0773 24.6474 22.1061 24.6671 22.1392C24.6867 22.1724 24.6995 22.2092 24.7046 22.2475V47.8376H38.6503C38.9522 47.8376 39.0427 47.9894 38.9823 48.2626L38.107 53.5445C38.1022 53.6143 38.0838 53.6824 38.0527 53.7449C38.0216 53.8075 37.9785 53.8632 37.9258 53.9088C37.8373 53.9704 37.7316 54.0023 37.624 53.9999Z" fill="#FAFAFA"/>
<path d="M42.342 29.4935H47.675C47.8194 29.497 47.959 29.5462 48.074 29.6342C48.1889 29.7222 48.2732 29.8445 48.3149 29.9835C48.4409 30.2001 48.5237 30.4394 48.5587 30.6879C48.6197 30.9941 48.6806 31.331 48.7111 31.6373C48.7416 31.9435 48.772 32.3417 48.772 32.7398C49.687 31.6663 50.7927 30.7731 52.0327 30.106C53.425 29.3475 54.9901 28.9675 56.5734 29.0034C56.6235 28.9966 56.6745 29 56.7233 29.0133C56.7722 29.0267 56.8178 29.0497 56.8576 29.0811C56.8974 29.1126 56.9305 29.1517 56.955 29.1962C56.9794 29.2407 56.9947 29.2897 57 29.3403V35.4349C57 35.6799 56.8476 35.7718 56.5124 35.7718C54.5374 35.6529 52.5628 36.0099 50.7528 36.813C50.1356 37.0785 49.5764 37.4635 49.1072 37.9462V53.5654C49.1072 53.8716 48.9853 53.9941 48.7111 53.9941H42.7687C42.7124 54.0036 42.6549 54.0016 42.5995 53.9881C42.5441 53.9745 42.492 53.9498 42.4464 53.9155C42.4008 53.8811 42.3626 53.8378 42.3342 53.7881C42.3058 53.7385 42.2877 53.6835 42.2811 53.6266V36.5374C42.2811 35.8024 42.2811 35.0367 42.2506 34.2405C42.2201 33.4442 42.2201 32.6479 42.1897 31.8516C42.1592 31.1779 42.0982 30.5041 42.0068 29.8303C41.9987 29.7941 41.9978 29.7567 42.0042 29.7201C42.0105 29.6836 42.024 29.6487 42.0438 29.6174C42.0637 29.5861 42.0894 29.559 42.1197 29.5377C42.1499 29.5165 42.1841 29.5014 42.2201 29.4935C42.2506 29.4628 42.2811 29.4628 42.342 29.4935Z" fill="#FAFAFA"/>
</svg>
