<svg width="75" height="75" viewBox="0 0 75 75" fill="none" xmlns="http://www.w3.org/2000/svg">
<rect width="75" height="75" rx="7" fill="#1E1E1E"/>
<path d="M57.9469 13.5H17.0437C15.0844 13.5 13.5 15.0469 13.5 16.9594V58.0312C13.5 59.9437 15.0844 61.5 17.0437 61.5H57.9469C59.9062 61.5 61.5 59.9438 61.5 58.0406V16.9594C61.5 15.0469 59.9062 13.5 57.9469 13.5ZM27.7406 54.4031H20.6156V31.4906H27.7406V54.4031ZM24.1781 28.3688C21.8906 28.3688 20.0438 26.5219 20.0438 24.2437C20.0438 21.9656 21.8906 20.1187 24.1781 20.1187C26.4563 20.1187 28.3031 21.9656 28.3031 24.2437C28.3031 26.5125 26.4563 28.3688 24.1781 28.3688ZM54.4031 54.4031H47.2875V43.2656C47.2875 40.6125 47.2406 37.1906 43.5844 37.1906C39.8812 37.1906 39.3187 40.0875 39.3187 43.0781V54.4031H32.2125V31.4906H39.0375V34.6219H39.1312C40.0781 32.8219 42.4031 30.9188 45.8625 30.9188C53.0719 30.9188 54.4031 35.6625 54.4031 41.8313V54.4031Z" fill="#FAFAFA"/>
</svg>
