<svg width="75" height="75" viewBox="0 0 75 75" fill="none" xmlns="http://www.w3.org/2000/svg">
<rect width="75" height="75" rx="7" fill="#1E1E1E"/>
<path d="M40.8882 37.5002C40.8882 45.0417 34.8272 51.1552 27.351 51.1552C19.8748 51.1552 13.8134 45.0403 13.8134 37.5002C13.8134 29.9602 19.8744 23.8448 27.351 23.8448C34.8277 23.8448 40.8882 29.9588 40.8882 37.5002Z" fill="#FAFAFA"/>
<path d="M55.4259 37.5C55.4259 44.5987 52.3954 50.3555 48.657 50.3555C44.9187 50.3555 41.8882 44.5987 41.8882 37.5C41.8882 30.4014 44.9182 24.6445 48.6566 24.6445C52.3949 24.6445 55.4254 30.3996 55.4254 37.5" fill="#FAFAFA"/>
<path d="M61.1867 37.5C61.1867 43.8587 60.121 49.0165 58.8061 49.0165C57.4911 49.0165 56.4259 43.86 56.4259 37.5C56.4259 31.14 57.4916 25.9835 58.8061 25.9835C60.1205 25.9835 61.1867 31.1395 61.1867 37.5Z" fill="#FAFAFA"/>
</svg>
