<svg width="75" height="75" viewBox="0 0 75 75" fill="none" xmlns="http://www.w3.org/2000/svg">
<rect width="75" height="75" rx="7" fill="#1E1E1E"/>
<path d="M37.5 13.5C24.2438 13.5 13.5 24.2438 13.5 37.5C13.5 47.6719 19.8281 56.3531 28.7531 59.85C28.5469 57.9469 28.35 55.0406 28.8375 52.9688C29.2781 51.0938 31.65 41.0437 31.65 41.0437C31.65 41.0437 30.9281 39.6094 30.9281 37.4813C30.9281 34.1438 32.8594 31.65 35.2687 31.65C37.3125 31.65 38.3063 33.1875 38.3063 35.0344C38.3063 37.0969 36.9937 40.1719 36.3187 43.0219C35.7562 45.4125 37.5187 47.3625 39.8719 47.3625C44.1375 47.3625 47.4187 42.8625 47.4187 36.375C47.4187 30.6281 43.2937 26.6063 37.3969 26.6063C30.5719 26.6063 26.5594 31.725 26.5594 37.0219C26.5594 39.0844 27.3562 41.2969 28.35 42.4969C28.5469 42.7312 28.575 42.9469 28.5187 43.1813C28.3406 43.9406 27.9281 45.5719 27.8531 45.9C27.75 46.3406 27.5063 46.4344 27.0469 46.2188C24.0469 44.8219 22.1719 40.4438 22.1719 36.9188C22.1719 29.3438 27.675 22.3969 38.025 22.3969C46.35 22.3969 52.8187 28.3313 52.8187 36.2625C52.8187 44.5312 47.6063 51.1875 40.3688 51.1875C37.9406 51.1875 35.6531 49.9219 34.8656 48.4313C34.8656 48.4313 33.6656 53.0156 33.375 54.1406C32.8312 56.2219 31.3687 58.8375 30.3937 60.4313C32.6437 61.125 35.025 61.5 37.5 61.5C50.7562 61.5 61.5 50.7562 61.5 37.5C61.5 24.2438 50.7562 13.5 37.5 13.5Z" fill="#FAFAFA"/>
</svg>
