<svg width="75" height="75" viewBox="0 0 75 75" fill="none" xmlns="http://www.w3.org/2000/svg">
<rect width="75" height="75" rx="7" fill="#1E1E1E"/>
<path d="M61.0219 27.9047C61.0219 27.9047 60.5531 24.5954 59.1094 23.1422C57.2812 21.2297 55.2375 21.2204 54.3 21.1079C47.5875 20.6204 37.5094 20.6204 37.5094 20.6204H37.4906C37.4906 20.6204 27.4125 20.6204 20.7 21.1079C19.7625 21.2204 17.7188 21.2297 15.8906 23.1422C14.4469 24.5954 13.9875 27.9047 13.9875 27.9047C13.9875 27.9047 13.5 31.7954 13.5 35.6766V39.3141C13.5 43.1954 13.9781 47.086 13.9781 47.086C13.9781 47.086 14.4469 50.3954 15.8812 51.8485C17.7094 53.761 20.1094 53.6954 21.1781 53.9016C25.0219 54.2672 37.5 54.3797 37.5 54.3797C37.5 54.3797 47.5875 54.361 54.3 53.8829C55.2375 53.7704 57.2812 53.761 59.1094 51.8485C60.5531 50.3954 61.0219 47.086 61.0219 47.086C61.0219 47.086 61.5 43.2047 61.5 39.3141V35.6766C61.5 31.7954 61.0219 27.9047 61.0219 27.9047ZM32.5406 43.7297V30.2391L45.5062 37.0079L32.5406 43.7297Z" fill="#FAFAFA"/>
</svg>
