<svg width="298" height="298" viewBox="0 0 298 298" fill="none" xmlns="http://www.w3.org/2000/svg">
<rect x="1" y="1" width="296" height="296" rx="9" fill="white"/>
<rect x="1" y="1" width="296" height="296" rx="9" stroke="#1E1E1E" stroke-width="2"/>
<path d="M107.043 162.5V137.336H110.926V162.5H107.043ZM108.769 151.787V148.049H121.746V151.787H108.769ZM108.769 141.075V137.336H123.364V141.075H108.769ZM128.345 162.5V143.627H132.048V162.5H128.345ZM130.142 139.457C129.352 139.457 128.74 139.253 128.309 138.846C127.878 138.439 127.662 137.863 127.662 137.121C127.662 136.426 127.878 135.862 128.309 135.431C128.764 135 129.376 134.784 130.142 134.784C130.933 134.784 131.544 134.988 131.976 135.395C132.407 135.802 132.623 136.378 132.623 137.121C132.623 137.816 132.395 138.379 131.94 138.81C131.509 139.241 130.909 139.457 130.142 139.457ZM137.811 162.5V135.898H141.514V162.5H137.811ZM146.689 162.5V143.627H150.428V147.653L149.745 148.085C149.937 147.462 150.236 146.863 150.644 146.287C151.075 145.712 151.59 145.209 152.189 144.778C152.813 144.322 153.472 143.963 154.167 143.699C154.886 143.435 155.616 143.304 156.359 143.304C157.438 143.304 158.385 143.483 159.199 143.843C160.014 144.202 160.685 144.742 161.212 145.461C161.74 146.179 162.123 147.078 162.363 148.157L161.788 148.013L162.039 147.402C162.303 146.851 162.662 146.335 163.118 145.856C163.597 145.353 164.136 144.909 164.735 144.526C165.335 144.142 165.97 143.843 166.641 143.627C167.312 143.411 167.971 143.304 168.618 143.304C170.032 143.304 171.194 143.591 172.105 144.166C173.039 144.742 173.734 145.616 174.19 146.791C174.669 147.965 174.909 149.427 174.909 151.176V162.5H171.17V151.392C171.17 150.314 171.026 149.439 170.739 148.768C170.475 148.073 170.068 147.558 169.516 147.222C168.965 146.886 168.258 146.719 167.396 146.719C166.725 146.719 166.089 146.839 165.49 147.078C164.915 147.294 164.412 147.605 163.98 148.013C163.549 148.42 163.214 148.9 162.974 149.451C162.734 149.978 162.614 150.565 162.614 151.212V162.5H158.876V151.32C158.876 150.338 158.732 149.511 158.444 148.84C158.157 148.145 157.737 147.617 157.186 147.258C156.635 146.898 155.964 146.719 155.173 146.719C154.502 146.719 153.879 146.839 153.304 147.078C152.729 147.294 152.225 147.605 151.794 148.013C151.363 148.396 151.027 148.864 150.787 149.415C150.548 149.942 150.428 150.517 150.428 151.14V162.5H146.689ZM186.157 162.859C184.575 162.859 183.149 162.584 181.879 162.033C180.609 161.481 179.554 160.667 178.716 159.588L181.232 157.431C181.951 158.27 182.73 158.881 183.569 159.265C184.431 159.624 185.402 159.804 186.48 159.804C186.912 159.804 187.307 159.756 187.667 159.66C188.05 159.54 188.374 159.373 188.637 159.157C188.925 158.941 189.141 158.689 189.284 158.402C189.428 158.09 189.5 157.755 189.5 157.395C189.5 156.772 189.272 156.269 188.817 155.886C188.577 155.718 188.194 155.538 187.667 155.346C187.163 155.131 186.504 154.915 185.69 154.699C184.3 154.34 183.161 153.932 182.274 153.477C181.388 153.022 180.705 152.506 180.225 151.931C179.866 151.476 179.602 150.985 179.435 150.457C179.267 149.906 179.183 149.307 179.183 148.66C179.183 147.869 179.351 147.15 179.686 146.503C180.046 145.832 180.525 145.257 181.124 144.778C181.747 144.274 182.466 143.891 183.281 143.627C184.12 143.364 185.007 143.232 185.941 143.232C186.828 143.232 187.703 143.352 188.565 143.591C189.452 143.831 190.267 144.178 191.01 144.634C191.753 145.089 192.376 145.628 192.879 146.251L190.758 148.588C190.303 148.133 189.8 147.737 189.248 147.402C188.721 147.042 188.182 146.767 187.631 146.575C187.08 146.383 186.576 146.287 186.121 146.287C185.618 146.287 185.162 146.335 184.755 146.431C184.347 146.527 184 146.671 183.712 146.863C183.449 147.054 183.245 147.294 183.101 147.581C182.957 147.869 182.886 148.193 182.886 148.552C182.91 148.864 182.981 149.163 183.101 149.451C183.245 149.714 183.437 149.942 183.676 150.134C183.94 150.326 184.336 150.529 184.863 150.745C185.39 150.961 186.061 151.164 186.876 151.356C188.074 151.668 189.057 152.015 189.824 152.399C190.614 152.758 191.238 153.177 191.693 153.657C192.172 154.112 192.508 154.639 192.699 155.238C192.891 155.838 192.987 156.509 192.987 157.252C192.987 158.33 192.676 159.301 192.052 160.163C191.453 161.002 190.638 161.661 189.608 162.141C188.577 162.62 187.427 162.859 186.157 162.859Z" fill="#1E1E1E"/>
</svg>
