<svg width="298" height="298" viewBox="0 0 298 298" fill="none" xmlns="http://www.w3.org/2000/svg">
<rect x="1" y="1" width="296" height="296" rx="9" fill="white"/>
<rect x="1" y="1" width="296" height="296" rx="9" stroke="#1E1E1E" stroke-width="2"/>
<path d="M67.3942 162.5L59.3777 137.336H63.5118L68.3648 153.082C68.5086 153.465 68.6404 153.92 68.7602 154.448C68.8801 154.951 68.9879 155.466 69.0838 155.993C69.1796 156.521 69.2635 157.012 69.3354 157.467C69.4313 157.923 69.5152 158.294 69.5871 158.582L68.5446 158.546C68.904 157.276 69.1796 156.293 69.3714 155.598C69.5871 154.903 69.7548 154.376 69.8746 154.016C69.9945 153.633 70.1023 153.309 70.1982 153.046L74.7277 141.686H78.2146L82.6003 153.046C82.84 153.621 83.0437 154.196 83.2114 154.771C83.4032 155.322 83.5709 155.886 83.7147 156.461C83.8585 157.012 84.0143 157.599 84.182 158.222L83.2474 158.474C83.3672 157.827 83.4511 157.323 83.499 156.964C83.5709 156.581 83.6308 156.269 83.6788 156.029C83.7267 155.79 83.7746 155.562 83.8226 155.346C83.8705 155.107 83.9424 154.807 84.0383 154.448C84.1581 154.088 84.3139 153.597 84.5056 152.974L89.2867 137.336H93.4567L85.4402 162.5H82.7441L76.0937 146.755L76.4172 146.898L70.0184 162.5H67.3942ZM104.806 162.859C102.864 162.859 101.139 162.452 99.6291 161.637C98.1433 160.798 96.969 159.66 96.1062 158.222C95.2674 156.784 94.848 155.131 94.848 153.261C94.848 151.775 95.0877 150.421 95.567 149.199C96.0463 147.977 96.7053 146.922 97.5441 146.036C98.4069 145.125 99.4254 144.43 100.6 143.951C101.798 143.447 103.092 143.196 104.482 143.196C105.704 143.196 106.843 143.435 107.897 143.915C108.952 144.37 109.862 145.005 110.629 145.82C111.42 146.635 112.019 147.605 112.427 148.732C112.858 149.834 113.062 151.044 113.038 152.363L113.002 153.944H97.5801L96.7533 150.997H109.802L109.263 151.608V150.745C109.191 149.954 108.928 149.247 108.472 148.624C108.017 148.001 107.442 147.51 106.747 147.15C106.052 146.791 105.297 146.611 104.482 146.611C103.188 146.611 102.098 146.863 101.211 147.366C100.324 147.845 99.6531 148.564 99.1977 149.523C98.7424 150.457 98.5147 151.62 98.5147 153.01C98.5147 154.328 98.7903 155.478 99.3415 156.461C99.8927 157.419 100.672 158.162 101.678 158.689C102.685 159.217 103.847 159.48 105.165 159.48C106.1 159.48 106.963 159.325 107.753 159.013C108.568 158.701 109.443 158.138 110.378 157.323L112.247 159.948C111.672 160.523 110.965 161.026 110.126 161.458C109.311 161.889 108.436 162.236 107.502 162.5C106.591 162.74 105.692 162.859 104.806 162.859ZM126.984 162.859C126.169 162.859 125.354 162.728 124.539 162.464C123.748 162.2 123.017 161.853 122.346 161.422C121.699 160.966 121.148 160.475 120.693 159.948C120.261 159.396 119.974 158.845 119.83 158.294L120.764 157.791V162.392H117.062V135.898H120.764V147.941L120.189 147.617C120.309 147.066 120.573 146.539 120.98 146.036C121.388 145.508 121.903 145.041 122.526 144.634C123.173 144.202 123.868 143.867 124.611 143.627C125.354 143.364 126.109 143.232 126.876 143.232C128.577 143.232 130.087 143.651 131.405 144.49C132.723 145.329 133.766 146.491 134.533 147.977C135.3 149.439 135.683 151.116 135.683 153.01C135.683 154.903 135.3 156.593 134.533 158.078C133.79 159.564 132.759 160.739 131.441 161.601C130.123 162.44 128.637 162.859 126.984 162.859ZM126.372 159.48C127.475 159.48 128.457 159.205 129.32 158.654C130.183 158.078 130.866 157.311 131.369 156.353C131.872 155.37 132.124 154.256 132.124 153.01C132.124 151.787 131.872 150.697 131.369 149.738C130.89 148.756 130.219 147.989 129.356 147.438C128.493 146.886 127.499 146.611 126.372 146.611C125.246 146.611 124.251 146.886 123.389 147.438C122.526 147.989 121.843 148.756 121.34 149.738C120.836 150.697 120.585 151.787 120.585 153.01C120.585 154.256 120.836 155.37 121.34 156.353C121.843 157.311 122.526 158.078 123.389 158.654C124.251 159.205 125.246 159.48 126.372 159.48ZM135.973 167.245L150.784 137.336H154.343L139.568 167.245H135.973ZM152.655 162.5L162.396 137.336H166.351L176.021 162.5H171.887L166.135 147.33C166.063 147.162 165.919 146.755 165.704 146.108C165.512 145.461 165.284 144.742 165.021 143.951C164.757 143.16 164.517 142.441 164.302 141.794C164.086 141.123 163.942 140.691 163.87 140.5L164.697 140.464C164.553 140.871 164.374 141.386 164.158 142.009C163.966 142.633 163.751 143.292 163.511 143.987C163.295 144.682 163.08 145.341 162.864 145.964C162.648 146.563 162.468 147.066 162.325 147.474L156.609 162.5H152.655ZM156.968 156.245L158.406 152.506H169.838L171.491 156.245H156.968ZM179.515 170.409V143.627H183.254V147.941L182.678 147.617C182.822 146.898 183.23 146.215 183.901 145.568C184.572 144.897 185.386 144.358 186.345 143.951C187.328 143.519 188.334 143.304 189.365 143.304C191.066 143.304 192.576 143.723 193.894 144.562C195.212 145.401 196.255 146.551 197.022 148.013C197.789 149.475 198.172 151.152 198.172 153.046C198.172 154.915 197.789 156.593 197.022 158.078C196.279 159.54 195.248 160.703 193.93 161.565C192.612 162.404 191.126 162.824 189.473 162.824C188.37 162.824 187.304 162.608 186.273 162.176C185.243 161.721 184.368 161.146 183.649 160.451C182.93 159.756 182.487 159.037 182.319 158.294L183.254 157.791V170.409H179.515ZM188.861 159.408C189.964 159.408 190.946 159.133 191.809 158.582C192.672 158.03 193.355 157.276 193.858 156.317C194.362 155.358 194.613 154.268 194.613 153.046C194.613 151.823 194.362 150.745 193.858 149.81C193.379 148.852 192.708 148.097 191.845 147.546C190.982 146.994 189.988 146.719 188.861 146.719C187.735 146.719 186.74 146.994 185.878 147.546C185.015 148.073 184.332 148.816 183.829 149.774C183.325 150.733 183.074 151.823 183.074 153.046C183.074 154.268 183.325 155.358 183.829 156.317C184.332 157.276 185.015 158.03 185.878 158.582C186.74 159.133 187.735 159.408 188.861 159.408ZM202.193 170.409V143.627H205.932V147.941L205.357 147.617C205.5 146.898 205.908 146.215 206.579 145.568C207.25 144.897 208.065 144.358 209.023 143.951C210.006 143.519 211.012 143.304 212.043 143.304C213.745 143.304 215.254 143.723 216.572 144.562C217.891 145.401 218.933 146.551 219.7 148.013C220.467 149.475 220.85 151.152 220.85 153.046C220.85 154.915 220.467 156.593 219.7 158.078C218.957 159.54 217.927 160.703 216.608 161.565C215.29 162.404 213.804 162.824 212.151 162.824C211.048 162.824 209.982 162.608 208.951 162.176C207.921 161.721 207.046 161.146 206.327 160.451C205.608 159.756 205.165 159.037 204.997 158.294L205.932 157.791V170.409H202.193ZM211.54 159.408C212.642 159.408 213.625 159.133 214.487 158.582C215.35 158.03 216.033 157.276 216.537 156.317C217.04 155.358 217.291 154.268 217.291 153.046C217.291 151.823 217.04 150.745 216.537 149.81C216.057 148.852 215.386 148.097 214.523 147.546C213.661 146.994 212.666 146.719 211.54 146.719C210.413 146.719 209.419 146.994 208.556 147.546C207.693 148.073 207.01 148.816 206.507 149.774C206.004 150.733 205.752 151.823 205.752 153.046C205.752 154.268 206.004 155.358 206.507 156.317C207.01 157.276 207.693 158.03 208.556 158.582C209.419 159.133 210.413 159.408 211.54 159.408ZM231.162 162.859C229.581 162.859 228.155 162.584 226.885 162.033C225.614 161.481 224.56 160.667 223.721 159.588L226.238 157.431C226.956 158.27 227.735 158.881 228.574 159.265C229.437 159.624 230.408 159.804 231.486 159.804C231.917 159.804 232.313 159.756 232.672 159.66C233.056 159.54 233.379 159.373 233.643 159.157C233.93 158.941 234.146 158.689 234.29 158.402C234.434 158.09 234.506 157.755 234.506 157.395C234.506 156.772 234.278 156.269 233.823 155.886C233.583 155.718 233.199 155.538 232.672 155.346C232.169 155.131 231.51 154.915 230.695 154.699C229.305 154.34 228.167 153.932 227.28 153.477C226.393 153.022 225.71 152.506 225.231 151.931C224.871 151.476 224.608 150.985 224.44 150.457C224.272 149.906 224.188 149.307 224.188 148.66C224.188 147.869 224.356 147.15 224.692 146.503C225.051 145.832 225.531 145.257 226.13 144.778C226.753 144.274 227.472 143.891 228.287 143.627C229.125 143.364 230.012 143.232 230.947 143.232C231.833 143.232 232.708 143.352 233.571 143.591C234.458 143.831 235.273 144.178 236.015 144.634C236.758 145.089 237.381 145.628 237.885 146.251L235.764 148.588C235.308 148.133 234.805 147.737 234.254 147.402C233.727 147.042 233.188 146.767 232.636 146.575C232.085 146.383 231.582 146.287 231.126 146.287C230.623 146.287 230.168 146.335 229.76 146.431C229.353 146.527 229.006 146.671 228.718 146.863C228.454 147.054 228.251 147.294 228.107 147.581C227.963 147.869 227.891 148.193 227.891 148.552C227.915 148.864 227.987 149.163 228.107 149.451C228.251 149.714 228.442 149.942 228.682 150.134C228.946 150.326 229.341 150.529 229.868 150.745C230.396 150.961 231.067 151.164 231.881 151.356C233.08 151.668 234.062 152.015 234.829 152.399C235.62 152.758 236.243 153.177 236.698 153.657C237.178 154.112 237.513 154.639 237.705 155.238C237.897 155.838 237.993 156.509 237.993 157.252C237.993 158.33 237.681 159.301 237.058 160.163C236.459 161.002 235.644 161.661 234.613 162.141C233.583 162.62 232.433 162.859 231.162 162.859Z" fill="#1E1E1E"/>
</svg>
